<mxfile host="app.diagrams.net" modified="2022-06-20T08:23:01.341Z" agent="5.0 (X11; Linux x86_64) AppleWebKit/537.36 (KHTML, like Gecko) Chrome/102.0.0.0 Safari/537.36" etag="zynFtOkjlaYY3WLJUoFV" version="20.0.1" type="github">
  <diagram id="SeaE2PZ0450Gaacmecqz" name="Page-1">
    <mxGraphModel dx="495" dy="267" grid="1" gridSize="10" guides="1" tooltips="1" connect="1" arrows="1" fold="1" page="1" pageScale="1" pageWidth="827" pageHeight="1169" math="0" shadow="0">
      <root>
        <mxCell id="0" />
        <mxCell id="1" parent="0" />
        <mxCell id="buKXZV6zHNWa_m4jz4ZD-1" value="" style="rounded=0;whiteSpace=wrap;html=1;" vertex="1" parent="1">
          <mxGeometry x="280" y="200" width="160" height="80" as="geometry" />
        </mxCell>
        <mxCell id="buKXZV6zHNWa_m4jz4ZD-2" value="" style="rounded=0;whiteSpace=wrap;html=1;" vertex="1" parent="1">
          <mxGeometry x="280" y="310" width="200" height="90" as="geometry" />
        </mxCell>
        <mxCell id="buKXZV6zHNWa_m4jz4ZD-3" value="&lt;font color=&quot;#ff3333&quot;&gt;class User {&lt;br&gt;&lt;span style=&quot;white-space: pre;&quot;&gt;	&lt;/span&gt;public void add() {&lt;br&gt;&lt;span style=&quot;white-space: pre;&quot;&gt;&lt;span style=&quot;white-space: pre;&quot;&gt;	&lt;span style=&quot;white-space: pre;&quot;&gt;	&lt;/span&gt;.&lt;/span&gt;.....	&lt;/span&gt;&lt;br&gt;&lt;span style=&quot;white-space: pre;&quot;&gt;	&lt;/span&gt;｝&lt;br&gt;}&lt;/font&gt;" style="text;html=1;strokeColor=none;fillColor=none;align=left;verticalAlign=middle;whiteSpace=wrap;rounded=0;" vertex="1" parent="1">
          <mxGeometry x="290" y="225" width="140" height="30" as="geometry" />
        </mxCell>
        <mxCell id="buKXZV6zHNWa_m4jz4ZD-4" value="&lt;font color=&quot;#009900&quot;&gt;class Person extends User {&lt;br&gt;&lt;span style=&quot;white-space: pre;&quot;&gt;	&lt;/span&gt;public void add() {&lt;br&gt;&lt;span style=&quot;white-space: pre;&quot;&gt;	&lt;/span&gt;&lt;span style=&quot;white-space: pre;&quot;&gt;	&lt;/span&gt;super.add();&lt;span style=&quot;white-space: pre;&quot;&gt;	&lt;span style=&quot;white-space: pre;&quot;&gt;	&lt;/span&gt;子类&lt;/span&gt;&lt;br&gt;&lt;span style=&quot;white-space: pre;&quot;&gt;	&lt;/span&gt;&lt;span style=&quot;white-space: pre;&quot;&gt;	&lt;/span&gt;//增强逻辑&lt;br&gt;&lt;span style=&quot;white-space: pre;&quot;&gt;	&lt;/span&gt;｝&lt;br&gt;｝&lt;/font&gt;" style="text;html=1;strokeColor=none;fillColor=none;align=left;verticalAlign=middle;whiteSpace=wrap;rounded=0;" vertex="1" parent="1">
          <mxGeometry x="290" y="340" width="190" height="30" as="geometry" />
        </mxCell>
        <mxCell id="buKXZV6zHNWa_m4jz4ZD-5" value="&lt;font color=&quot;#6666ff&quot;&gt;动态代理&lt;br&gt;没有接口情况&lt;/font&gt;" style="text;html=1;strokeColor=none;fillColor=none;align=left;verticalAlign=middle;whiteSpace=wrap;rounded=0;" vertex="1" parent="1">
          <mxGeometry x="200" y="210" width="80" height="30" as="geometry" />
        </mxCell>
        <mxCell id="buKXZV6zHNWa_m4jz4ZD-6" value="CGLIB动态代理&lt;br&gt;创建当前类子类的代理对象" style="text;html=1;strokeColor=none;fillColor=none;align=left;verticalAlign=middle;whiteSpace=wrap;rounded=0;fontColor=#6666FF;" vertex="1" parent="1">
          <mxGeometry x="520" y="250" width="180" height="30" as="geometry" />
        </mxCell>
        <mxCell id="buKXZV6zHNWa_m4jz4ZD-8" style="edgeStyle=orthogonalEdgeStyle;rounded=0;orthogonalLoop=1;jettySize=auto;html=1;entryX=1;entryY=0.5;entryDx=0;entryDy=0;fontColor=#6666FF;" edge="1" parent="1" source="buKXZV6zHNWa_m4jz4ZD-7" target="buKXZV6zHNWa_m4jz4ZD-1">
          <mxGeometry relative="1" as="geometry">
            <Array as="points">
              <mxPoint x="500" y="350" />
              <mxPoint x="500" y="240" />
            </Array>
          </mxGeometry>
        </mxCell>
        <mxCell id="buKXZV6zHNWa_m4jz4ZD-7" value="代理对象" style="rounded=0;whiteSpace=wrap;html=1;fontColor=#6666FF;" vertex="1" parent="1">
          <mxGeometry x="520" y="320" width="120" height="60" as="geometry" />
        </mxCell>
      </root>
    </mxGraphModel>
  </diagram>
</mxfile>
